# xmcd CD database file
#
# Track frame offsets:
#	150
#	17321
#	34836
#	53995
#	70308
#	89305
#	105378
#	125172
#	148108
#	164275
#	188408
#	205314
#	220992
#	235842
#	255115
#	268514
#	279368
#
# Disc length: 4136 seconds
#
# Revision: 5
# Processed by: cddbd v1.5.1PL2 Copyright (c) Steve Scherf et al.
# Submitted via: CDex 1.51
#
DISCID=ea102611
DTITLE=Fleetwood Mac - The Vaudeville Years Of Fleetwood Mac 1968 To 1970 (Disc-1)
DYEAR=1900
DGENRE=Blues
TTITLE0=Intro - Lazy Poker Blues (Unissued Ver.)
TTITLE1=My Baby's Sweeter (Unissued Ver.)
TTITLE2=Love That Burns (Unissued Ver.)
TTITLE3=Talk To Me Baby (Unissued Ver.)
TTITLE4=Everyday I Have The Blues - 1 (Unissued Ver.)
TTITLE5=Jeremy's Contribution To Doo Wop (Previously Unissued)
TTITLE6=Everyday I Have The Blues - 2 (Unissued Ver.)
TTITLE7=Death Bells (Previously Unissued)
TTITLE8=(Watch Out For Yourself) Mr Jones (Previously Unissued)
TTITLE9=Man Of Action (Unissued Ver.)
TTITLE10=Do You Give A Damn For Me (Unissued Ver.)
TTITLE11=Man Of The World (Unisued Ver.)
TTITLE12=Like It This Way (Unissued Ver.)
TTITLE13=Blues In B Flat Minor (Unissued Instrumental)
TTITLE14=Someone's Gonna Get Their Head Kicked In Tonight (Full Length Ver.)
TTITLE15=Although The Sun Is Shining (Unissued Ver.)
TTITLE16=Showbiz Blues (Unissued Ver.)
EXTD=
EXTT0=
EXTT1=
EXTT2=
EXTT3=
EXTT4=
EXTT5=
EXTT6=
EXTT7=
EXTT8=
EXTT9=
EXTT10=
EXTT11=
EXTT12=
EXTT13=
EXTT14=
EXTT15=
EXTT16=
PLAYORDER=
